<?xml version="1.0" encoding="utf-8"?>
<!-- Generator: Adobe Illustrator 23.0.4, SVG Export Plug-In . SVG Version: 6.00 Build 0)  -->
<svg version="1.1" id="LOGO_-_OUTLINED" xmlns="http://www.w3.org/2000/svg" xmlns:xlink="http://www.w3.org/1999/xlink" x="0px"
	 y="0px" viewBox="0 0 287.5 150.5" style="enable-background:new 0 0 287.5 150.5;" xml:space="preserve">
<style type="text/css">
	.st0{fill:#F68D2E;}
	.st1{fill:#333333;}
</style>
<g>
	<path class="st0" d="M30.5,50.7c6.5,2.9,12.9,5.8,19.2,8.5v-0.7C37.8,53.7,30.5,50.7,30.5,50.7z"/>
	<path class="st0" d="M91.4,75.2h1.3c-3.1-1.2-6.1-2.3-9.1-3.5c-0.8,0.4-1.8,0.8-2.7,1c2.6,1.1,5.2,2.2,7.8,3.3
		C89.4,75.6,90.2,75.2,91.4,75.2z"/>
	<path class="st0" d="M99.2,77.7V79h-3.7c6.9,2.9,13.6,5.8,20,8.4v-3.8C109.9,81.7,104.4,79.7,99.2,77.7z"/>
	<path class="st0" d="M119.2,89.1c0.1,0,0.1,0.1,0.2,0.1h3.7c1,0,1.2-0.2,1.3-1.3c0-0.1,0-0.2,0-0.2v-0.7c-1.7-0.6-3.5-1.2-5.2-1.9
		L119.2,89.1L119.2,89.1z"/>
	<path class="st0" d="M234.3,87.7c52.5,50.6-30.8,27.4-106.1,0.6V89c0,0.2,0,0.4-0.1,0.7c-0.1,1.2-0.6,2-1.2,2.5
		C378.9,196.2,234.3,87.7,234.3,87.7z"/>
	<path class="st0" d="M63.8,65.4c0.9,0.4,1.7,0.8,2.6,1.1c1.8,0.6,3.8,0.9,6,0.9c-4.2-1.6-8.2-3.2-11.9-4.7
		C61.5,63.8,62.6,64.7,63.8,65.4z"/>
</g>
<g>
	<path class="st0" d="M35.1,50.4c5,1.9,9.8,3.8,14.6,5.6v-0.4C40.6,52.4,35.1,50.4,35.1,50.4z"/>
	<path class="st0" d="M119.2,79.1v2.7c1.8,0.6,3.5,1.2,5.2,1.8v-3.4c-1.2-0.4-2.5-0.8-3.7-1.1C120.7,79,119.2,79,119.2,79.1z"/>
	<path class="st0" d="M128.1,84.9c5.7,2,11.2,3.9,16.4,5.6V86c-5.4-1.5-10.9-3.1-16.4-4.7V84.9z"/>
	<path class="st0" d="M201.8,69c40.3,34,10.7,33.7-34.1,23l-0.3,0.9c-0.1,0-3.9,0-3.9,0l0.6-1.8c-5.1-1.2-10.4-2.6-15.7-4.1v4.7
		C319.7,148.5,201.8,69,201.8,69z"/>
	<path class="st0" d="M87.9,68.7c-0.4,0.5-0.9,0.9-1.3,1.3c10.2,3.8,19.8,7.3,28.8,10.5v-3C105.9,74.5,96.7,71.5,87.9,68.7z"/>
	<path class="st0" d="M77.1,66.4c0.5-0.2,0.9-0.6,1.3-0.9c-7.6-2.6-14.6-5-20.7-7.1c0.1,0.3,0.2,0.5,0.3,0.8
		C64.6,61.7,71,64.1,77.1,66.4z"/>
</g>
<g>
	<path class="st0" d="M106.6,71.6c-2.1-1.2-3.9-2.9-5.3-4.9c-3.6-0.9-7.2-1.8-10.7-2.6c-0.2,0.8-0.6,1.6-1,2.3
		C95.5,68.2,101.2,70,106.6,71.6z"/>
	<path class="st0" d="M40.2,50.4C44.9,52,49.5,53.5,54,55h2.2C46.4,52.2,40.2,50.4,40.2,50.4z"/>
	<path class="st0" d="M79.9,63.3c0.2-0.5,0.3-1,0.3-1.6c0-0.1,0-0.2,0-0.3c-8.9-2.3-17-4.5-23.5-6.3c0.1,0.3,0.1,0.5,0.2,0.8
		C64.9,58.6,72.6,61,79.9,63.3z"/>
	<path class="st0" d="M168.1,78.4c-5.8-0.3-12.5-1-19.7-2.1v7c6.2,1.6,11.9,2.9,17,4L168.1,78.4z"/>
	<path class="st0" d="M144.6,75.7c-6.7-1.1-13.7-2.4-20.9-3.9c-2.4,1.4-5.2,2.1-8.2,2.1c-0.5,0-1,0-1.5-0.1c1.7,0.5,3.4,1,5.1,1.5
		h5.4c2.1,0,3.3,0.8,3.6,2.6c5.9,1.7,11.4,3.1,16.5,4.5L144.6,75.7L144.6,75.7z"/>
	<path class="st0" d="M173.8,53.5v0.4c21.5,17.6,17.2,24,0.8,24.5l3.5,11.3C243.4,100.9,187.1,62.3,173.8,53.5z"/>
</g>
<path class="st1" d="M52.2,91.4V76.8c0-2,1.3-3.4,3.3-3.4c0.3,0,0.7,0.1,1,0.1c1.2,0.2,2,1.1,2.2,2.2L60.9,86l2.4-10.2
	c0.3-1.2,1.1-2,2.2-2.2c0.3-0.1,0.7-0.1,1-0.1c2,0,3.3,1.4,3.3,3.4v14.6h-3.6V78.8l-2.7,10.7c-0.1,0.4-0.2,0.7-0.4,1.1
	c-0.4,0.8-1.3,1.3-2.1,1.3c-0.6,0-1.2-0.2-1.6-0.7c-0.3-0.3-0.6-0.9-0.8-1.7l-2.7-10.7v12.7L52.2,91.4L52.2,91.4z"/>
<path class="st1" d="M86.2,87.7V77.5c0-0.3,0-0.5,0.1-0.8c0.3-2,1.5-3,3.6-3h7.8v3.8h-6.2h-0.6h-0.1c-0.1,0-0.2,0-0.2,0.1
	c-0.4,0.2-0.6,0.5-0.6,1.1v2h7.7v3.8H90v2c0,0.8,0.3,1.1,1,1.2h0.6h6.1v3.8h-7.3C87.5,91.4,86.2,90.1,86.2,87.7z"/>
<path class="st1" d="M120.6,91.5c-2.7,0-6.7-0.1-6.7-0.1V73.7h9c2.6,0,3.8,1.2,3.8,3.9v9.9c0,0.2,0,0.4-0.1,0.7
	c-0.3,2.1-1.5,3.2-3.6,3.2C122.9,91.4,121.9,91.5,120.6,91.5z M121.5,87.6c1,0,1.2-0.2,1.3-1.3c0-0.1,0-0.2,0-0.2v-7.8
	c0-0.5-0.3-0.7-1.1-0.8c-0.1,0-0.2,0-0.3,0h-3.8v10.1C117.6,87.6,121.5,87.6,121.5,87.6z"/>
<path class="st1" d="M143,91.4V73.7h3.8v17.7H143z"/>
<path class="st1" d="M162,91.4l4.9-15.5c0.5-1.6,1.5-2.4,3-2.4c1.4,0,2.5,0.8,2.9,2.4l4.9,15.5h-3.9l-1.2-3.8h-5.3l-1.2,3.8
	C165.9,91.4,162,91.4,162,91.4z M171.3,84l-1.8-5.7l-1.3,5.7H171.3z"/>
<path class="st1" d="M152.8,70.9v-6.3h4.4c2.7,0,3.8-1,3.8-3.8V36.4c0-2.8-1.1-3.8-3.8-3.8h-4.4v-6.3h19.4v34.5
	c0,2.8,1.1,3.8,3.8,3.8h4.7v6.3L152.8,70.9L152.8,70.9z"/>
<path class="st0" d="M165.4,6.6c3.7,0,6.9,3.1,6.9,6.8c0,3.8-3.1,6.8-6.9,6.8s-6.9-3-6.9-6.8C158.5,9.7,161.7,6.6,165.4,6.6z"/>
<path class="st1" d="M129,63.1h-0.2c-3.8,6.5-8.7,9.2-14.9,9.2c-13.2,0-18.8-12-18.8-23.7s6.9-23.7,18.8-23.7
	c7.5,0,12.8,4.7,14.9,8.2h0.2V18.2c0-2.9-0.9-4.2-3.9-4.2h-6V7.8h21.1v52.6c0,2.9,0.9,4.2,3.8,4.2h4.9v6.3h-20L129,63.1L129,63.1z
	 M117.6,64.9c6.4,0,11.4-5.3,11.4-16.8c0-10.4-5-15.7-11.4-15.7s-9.8,5.3-9.8,16.3C107.8,59.5,111.2,64.9,117.6,64.9z"/>
<path class="st1" d="M55.1,53.5c1.9,8.4,7.7,12.5,16.1,12.5c3.3,0,7.4-1.8,7.4-5.7c0-9.3-30-4-30-21c0-9.4,9-14.3,17.4-14.3
	c5,0,9.9,1.9,14,4.7l1.9-3.2h5.2v15.9H81c-2.3-7-6.8-10.5-14.1-10.5c-3.1,0-7.2,1.3-7.2,5.1c0,7.4,30,3.9,30,21.3
	c0,10-8.5,14.1-17.4,14.1c-5.7,0-11.4-0.9-15.9-4.8l-1.9,3.4h-6.3V53.5H55.1z"/>
</svg>
