<svg xmlns="http://www.w3.org/2000/svg" width="300" height="104.059"><path d="M95.119 56.804s.005-.116 0-.312v-6.54h-7.433c-.026 0-.045-.004-.069-.004H56.98l1.14 7.183 7.992 3.289c3.29 1.387 5.41 2.781 5.41 8.617l.011-.006v14.525c-3.393 1.388-8.017 2.002-13.721 2.002-9.711 0-17.575-3.546-23.586-10.478-5.704-6.634-8.477-14.493-8.477-23.898 0-9.25 2.618-16.649 8.016-22.355 6.32-6.781 15.72-10.17 28.517-10.17 9.097 0 18.038 2.31 27.134 6.933l.46-20.81C79.55 1.542 69.22 0 58.739 0c-17.42 0-31.45 5.092-42.395 15.263C5.399 25.283 0 37.77 0 52.723c0 14.646 4.475 26.825 13.571 36.383 9.4 10.017 22.198 14.953 38.075 14.953 15.877 0 30.37-3.392 43.473-10.328V56.804zm91.213-4.282c0 17.39-14.094 31.49-31.486 31.482-17.395 0-31.488-14.092-31.488-31.482V21.034l31.488-.007c17.392.007 31.486 14.097 31.486 31.495m19.74.003c0-28.299-22.935-51.226-51.226-51.237l-51.229.013v51.224c0 28.295 22.933 51.217 51.229 51.217 28.291.014 51.226-22.922 51.226-51.217m89.457-26.935l.463-20.35C289.056 1.698 280.114 0 269.324 0c-17.42 0-31.601 5.24-42.55 15.573-10.327 9.865-15.567 22.351-15.567 37.307 0 14.8 4.623 26.82 13.718 36.226 9.559 10.017 22.509 14.953 39.003 14.953 12.486 0 24.51-3.547 36.072-10.792l-6.32-16.187c-8.481 4.626-16.96 6.94-25.59 6.94-9.402 0-16.957-3.085-22.661-9.407-5.702-6.32-8.479-14.026-8.479-23.431 0-9.094 2.62-16.496 7.709-22.2 5.857-6.782 14.489-10.174 25.741-10.174 9.097 0 17.42 2.314 25.13 6.782"/></svg>