<svg version="1.1" id="layer" xmlns="http://www.w3.org/2000/svg" x="0" y="0" viewBox="0 0 652 652" xml:space="preserve"><style>.st0{fill:#00053e}</style><path class="st0" d="M144.2 334.9h-2.6v-11.2h-4.2v-2.3h10.8l.4 2.3h-4.4zm20.4 0H162v-5.8h-5.8v5.8h-2.6v-13.5h2.6v5.2h5.8v-5.2h2.6zm16.3 0h-8.7v-13.5h8.5v2.3h-5.9v3h4.7l.4 2.3h-5.1v3.5h6.1zm20.3.2c-3.4 0-5.5-2.1-5.5-5.5v-8.2h2.6v8.1c0 2.2 1 3.4 2.9 3.4s2.9-1.1 2.9-3.3v-8.2h2.6v8.1c.1 3.5-2 5.6-5.5 5.6m23.8-.2h-2.2l-6.4-9.5v9.5h-2.5v-13.5h2.6l6.1 9v-9h2.4zm7.5-13.5h2.6v13.5h-2.6zm15.5 13.7h-2.4l-5.2-13.4 2.6-.6 3.9 10.6 3.8-10.3h2.6zm19-.2h-8.7v-13.5h8.5v2.3h-5.9v3h4.7l.4 2.3h-5.1v3.5h6.1zm14.3.1l-3.8-5.3h-1.2v5.1h-2.6v-13.5h4.2c3.2 0 5.1 1.6 5.1 4.2 0 1.8-.9 3.2-2.7 3.8l3.7 5-2.7.7zm-5.1-7.3h1.6c1.6 0 2.5-.7 2.5-2.1 0-1.6-1.4-1.9-2.5-1.9h-1.6v4zm17.5 7.4c-1.4 0-3.1-.4-4.6-1h-.1l.4-2.4.2.1c1.4.7 3 1.2 4.2 1.2 1.5 0 2.5-.7 2.5-1.7s-.6-1.4-2.5-2c-2.8-1-4.3-1.9-4.3-4 0-2.3 1.9-3.9 4.6-3.9 1.4 0 2.7.3 3.9.8h.1l-.4 2.5-.2-.1c-1.3-.7-2.4-1-3.5-1-1.2 0-2.1.6-2.1 1.4 0 .9.6 1.2 2.7 2 2.7.9 4.1 1.8 4.1 4.1-.1 2.3-2.1 4-5 4m11.5-13.7h2.6v13.5h-2.6zm14.5 13.5h-2.6v-11.2h-4.2v-2.3h10.8l.4 2.3h-4.4zm13.6 0h-2.6v-5.2l-4.9-8 2.7-.6 3.5 6.2 3.4-5.9h2.9l-5 8.2zm21.9.2c-3.2 0-6.5-2.4-6.5-7s3.3-7 6.5-7 6.5 2.4 6.5 7-3.3 7-6.5 7m0-11.7c-2.3 0-3.8 1.9-3.8 4.7 0 2.8 1.6 4.8 3.8 4.8 2.3 0 3.8-1.9 3.8-4.7 0-2.8-1.6-4.8-3.8-4.8m15.2 11.5h-2.6v-13.5h8.2v2.3h-5.6v3.2h4.4l.4 2.3h-4.8zm24.4 0h-4.4v-13.5h4.4c2.8 0 4.5 1.3 4.5 3.5 0 1.3-.6 2.3-1.7 2.8 1.5.6 2.3 1.6 2.3 3.1 0 2.6-1.8 4.1-5.1 4.1m-2-2.2h2c1.8 0 2.6-.6 2.6-1.8 0-1.3-.9-2-2.6-2h-2v3.8zm0-5.9h1.7c1.5 0 2.3-.6 2.3-1.7 0-.6-.2-1.5-2.2-1.5h-1.8v3.2zM414 335l-3.8-5.3H409v5.1h-2.6v-13.5h4.2c3.2 0 5.1 1.6 5.1 4.2 0 1.8-.9 3.2-2.7 3.8l3.7 5-2.7.7zm-5.1-7.3h1.6c1.6 0 2.5-.7 2.5-2.1 0-1.6-1.4-1.9-2.5-1.9h-1.6v4zm13.6-6.3h2.6v13.5h-2.6zm14.5 13.5h-2.6v-11.2h-4.2v-2.3H441l.4 2.3H437zm9.2-13.5h2.6v13.5h-2.6zm13.6 13.7c-1.4 0-3.1-.4-4.6-1h-.1l.4-2.4.2.1c1.4.7 3 1.2 4.2 1.2 1.5 0 2.4-.7 2.4-1.7s-.6-1.4-2.5-2c-2.8-1-4.3-1.9-4.3-4 0-2.3 1.9-3.9 4.6-3.9 1.4 0 2.7.3 3.9.8h.1l-.4 2.5-.2-.1c-1.3-.7-2.4-1-3.5-1-1.2 0-2.1.6-2.1 1.4 0 .9.6 1.2 2.7 2 2.6.9 4.1 1.8 4.1 4.1s-2 4-4.9 4m21.8-.2h-2.7v-5.8h-5.8v5.8h-2.6v-13.5h2.6v5.2h5.8v-5.2h2.7zm20.2.2c-3.9 0-6.5-2.8-6.5-7s2.6-7 6.5-7c1.5 0 2.8.3 3.9 1l.1.1-.4 2.5-.2-.1c-1.1-.8-2.1-1.2-3.3-1.2-2.4 0-3.9 1.8-3.9 4.8 0 2.9 1.5 4.8 3.9 4.8 1.2 0 2.4-.4 3.5-1.2l.2-.1.4 2.3h-.1c-1.1.7-2.6 1.1-4.1 1.1m15.6 0c-3.2 0-6.5-2.4-6.5-7s3.3-7 6.5-7 6.5 2.4 6.5 7c-.1 4.6-3.3 7-6.5 7m0-11.7c-2.3 0-3.8 1.9-3.8 4.7 0 2.8 1.6 4.8 3.8 4.8 2.3 0 3.8-1.9 3.8-4.7 0-2.8-1.6-4.8-3.8-4.8m20.2 11.5h-8v-13.5h2.6v11.2h5zm10.2.2c-3.4 0-5.5-2.1-5.5-5.5v-8.2h2.6v8.1c0 2.2 1 3.4 2.9 3.4s2.9-1.1 2.9-3.3v-8.2h2.6v8.1c.1 3.5-2 5.6-5.5 5.6m21.3-.2h-2.6l-3.6-10.2-.7 10.2h-2.4l1-13.5h3.6l3.5 10.3 3.6-10.3h3.5l1 13.5h-2.6l-.7-10.2zm18.5 0h-4.4v-13.5h4.4c2.8 0 4.5 1.3 4.5 3.5 0 1.3-.6 2.3-1.7 2.8 1.5.6 2.3 1.6 2.3 3.1 0 2.6-1.8 4.1-5.1 4.1m-2-2.2h2c1.8 0 2.6-.6 2.6-1.8 0-1.3-.9-2-2.6-2h-2v3.8zm0-5.9h1.7c1.5 0 2.3-.6 2.3-1.7 0-.6-.2-1.5-2.2-1.5h-1.8v3.2zm13.7-5.4h2.6v13.5h-2.6zm18.5 13.7l-1.3-3.6h-5.7l-1.2 3.3H607l5.3-13.7h2.8l5.3 13.3-2.6.7zm-6.1-5.9h3.9c-.2-.7-1.2-3.3-2-5.3l-1.9 5.3zm-469.6-27.9c-2.4 0-3.9-1.5-3.9-3.8 0-3.1 2.4-4.7 8-5.2v-.3c0-1.3-.7-1.9-2.2-1.9-1.3 0-2.7.3-4.4 1.1l-.1.1-.5-2.9h.1c1.4-.5 3.1-1.1 5.3-1.1 3.6 0 5.3 1.4 5.3 4.6v9.2h-3l-.3-1.6c-1.3 1.2-2.6 1.8-4.3 1.8m4.1-6.9c-4 .5-4.5 1.7-4.5 2.7 0 .9.5 1.4 1.5 1.4 1.1 0 2.1-.5 3-1.4v-2.7zm14.8 11.7v-18.6h3l.3 1.7c1.2-1.3 2.5-1.9 4-1.9 2.5 0 5.1 1.7 5.1 6.7 0 5.4-3.2 7.3-5.9 7.3-1.1 0-2.1-.2-3-.5v4.9l-3.5.4zm3.6-8.4c.7.3 1.3.5 2.4.5 1.8 0 2.9-1.6 2.9-4.2 0-2.3-.9-3.7-2.4-3.7-1 0-1.9.6-2.9 1.8v5.6zm17 3.3h-3.5v-19.5l3.5-.6zm8.6.3c-2.4 0-3.9-1.5-3.9-3.8 0-3.1 2.4-4.7 8-5.2v-.3c0-1.3-.7-1.9-2.2-1.9-1.3 0-2.7.3-4.4 1.1l-.1.1-.5-2.9h.1c1.4-.5 3.1-1.1 5.3-1.1 3.6 0 5.3 1.4 5.3 4.6v9.2h-3l-.3-1.6c-1.2 1.2-2.6 1.8-4.3 1.8m4.1-6.9c-4 .5-4.5 1.7-4.5 2.7 0 .9.5 1.4 1.5 1.4 1.1 0 2.1-.5 3-1.4v-2.7zm14.6 6.8c-3.9 0-6.4-2.7-6.4-6.9 0-4.3 2.6-7.1 6.5-7.1 1.6 0 3 .4 4.2 1.1h.1l-.5 3.2-.2-.1c-1.1-.8-2.2-1.2-3.4-1.2-1.9 0-3.1 1.5-3.1 3.9 0 2.5 1.3 3.9 3.4 3.9 1.2 0 2.2-.4 3.4-1.2l.2-.1.5 3.1h-.1c-1.5 1-2.9 1.4-4.6 1.4m15 .1c-4.2 0-6.6-2.6-6.6-7 0-4.2 2.5-7 6.2-7s5.9 2.6 5.9 6.9v.9h-8.5c.2 2.3 1.4 3.5 3.4 3.5 1.5 0 2.9-.5 4.5-1.6l.2-.1.4 2.8h-.1c-1.6 1-3.4 1.6-5.4 1.6m-3-8.6h5c-.2-2-1.1-3-2.5-3-1.3 0-2.3 1.1-2.5 3m23.8 8.6c-3.8 0-6.3-2.8-6.3-7s2.6-7 6.4-7c3.8 0 6.4 2.8 6.4 7-.1 4.1-2.6 7-6.5 7m0-11.1c-1.8 0-2.9 1.5-2.9 4.1 0 2.5 1.1 4.1 2.9 4.1 1.9 0 3-1.5 3-4.1 0-2.6-1.2-4.1-3-4.1m15.5 10.8h-3.5v-10.6h-1.9v-2.9h1.9v-2.2c0-2.8 1.6-4.2 4.7-4.2.6 0 1.1.1 1.4.1h.1l.5 2.9h-.2c-.2 0-.7-.1-1.4-.1-1.1 0-1.6.5-1.6 1.6v1.8h2.5l.4 2.9h-3V301zm33.1 0h-3.5v-8.8c0-1.2-.5-1.8-1.5-1.8-.9 0-1.8.5-2.8 1.6v9.1H282v-8.8c0-1.2-.5-1.8-1.5-1.8-.9 0-1.8.5-2.8 1.6v9.1H274v-13.5h3l.3 1.7c1.1-1 2.5-2 4.3-2 1.7 0 2.9.7 3.4 2.1 1.4-1.4 2.9-2.1 4.4-2.1 2.5 0 3.9 1.5 3.9 4.1v9.5zm9.4 0h-3.5v-13.5h3.5V301zm-1.8-15.5c-1.2 0-2.1-.9-2.1-2 0-1.2.9-2 2.1-2 1.2 0 2.1.9 2.1 2s-.9 2-2.1 2m19.3 15.5h-3.5v-8.8c0-.8-.3-1.8-1.6-1.8-.9 0-1.9.5-2.9 1.6v9h-3.5v-13.5h3l.3 1.7c1-1 2.5-2 4.3-2 2.5 0 3.9 1.5 3.9 4.1v9.7zm10 .3c-2.5 0-5.1-1.7-5.1-6.7 0-5.4 3.1-7.3 5.9-7.3 1 0 2 .1 3 .4v-6.3l3.5-.6V301h-3l-.3-1.7c-1.2 1.3-2.5 2-4 2m1.3-11.1c-1.8 0-2.9 1.6-2.9 4.2 0 2.3.9 3.7 2.4 3.7 1 0 1.9-.5 2.9-1.7v-5.6c-.7-.4-1.4-.6-2.4-.6M54.3 310.1l3.6 26.2 11.9-19.8-5 21.8 12.8-12.2-6.7 16.2 10.7-8c-5 13.5-9.3 21.1-27.2 27.2-18-6.1-22.3-13.7-27.2-27.2l10.7 8-6.7-16.2L44 338.3l-5-21.8 11.9 19.8 3.4-26.2zm-18.8-8.8c-5.4 0-8.7-2.9-8.7-7.8v-11.7h4.5v11.5c0 2.8 1.5 4.4 4.2 4.4 2.8 0 4.3-1.5 4.3-4.3v-11.6h4.5v11.6c0 4.9-3.3 7.9-8.8 7.9m17-11.8h1.6c2.2 0 3.4-.8 3.4-2.3 0-1.5-1.1-2.2-3.2-2.2h-1.8v4.5zm0 8.3h1.9c1.8 0 3.8-.4 3.8-2.6s-2.1-2.7-3.9-2.7h-1.9v5.3zm2 3.2h-6.3v-19.2h6.4c4.7 0 7.3 1.8 7.3 5.1 0 1.7-.9 3.1-2.6 3.9 2.3.8 3.5 2.3 3.5 4.5-.1 3.7-3 5.7-8.3 5.7m20.8.3c-6.2 0-10.2-3.9-10.2-9.9 0-5.9 4.2-9.9 10.3-9.9 2.3 0 4.2.5 5.9 1.4l.1.1-.7 3.9-.3-.2c-1.6-1.1-3.2-1.6-4.9-1.6-3.7 0-5.9 2.4-5.9 6.4 0 3.9 2.3 6.3 6 6.3 1.7 0 3.5-.5 5.2-1.6l.3-.2.6 3.6-.1.1c-1.7 1-4 1.6-6.3 1.6"/><path class="st0" d="M20.4 275.8v50.1c0 21.1 11.5 36.3 33.9 42.3 22.4-6 33.9-21.2 33.9-42.3v-50.1H20.4zm33.9 89.7c-21.2-6-31.3-20-31.3-40v-47.2h62.6v47.2c0 20-10.1 34-31.3 40"/><path class="st0" d="M54.3 307.8c4.7 0 5.4 1.9 9.2 1.9 3.8 0 4.4-1.9 9.2-1.9 4.7 0 5.4 1.9 9.2 1.9v-4.4c-3.8 0-4.4-1.9-9.2-1.9-4.7 0-5.4 1.9-9.2 1.9-3.8 0-4.4-1.9-9.2-1.9-4.7 0-5.4 1.9-9.2 1.9-3.8 0-4.4-1.9-9.2-1.9-4.7 0-5.4 1.9-9.2 1.9v4.4c3.8 0 4.4-1.9 9.2-1.9 4.7 0 5.4 1.9 9.2 1.9 3.9 0 4.5-1.9 9.2-1.9m3 7.9c2.3.5 3.4 1.6 6.2 1.6 3.8 0 4.4-1.9 9.2-1.9 4.7 0 5.4 1.9 9.2 1.9v-4.4c-3.8 0-4.4-1.9-9.2-1.9-4.7 0-5.4 1.9-9.2 1.9-3.1 0-4.1-1.2-6.8-1.7l.6 4.5zm-12.2 1.6c2.8 0 3.9-1 6.2-1.6l.6-4.5c-2.7.5-3.7 1.7-6.8 1.7-3.8 0-4.4-1.9-9.2-1.9-4.7 0-5.4 1.9-9.2 1.9v4.4c3.8 0 4.4-1.9 9.2-1.9 4.8 0 5.5 1.9 9.2 1.9m13.3 6.4c1.3.4 2.3 1 3.8 1.2l2.6-4.4c-.4.1-.9.1-1.4.1-2.6 0-3.7-.9-5.7-1.4l.7 4.5zm12.1-.5c.6-.1 1.3-.2 2.2-.2 4.7 0 5.4 1.9 9.2 1.9v-4.4c-3.8 0-4.4-1.9-9.2-1.9h-1.1l-1.1 4.6zm-32.4 0l-1-4.5H36c-4.7 0-5.4 1.9-9.2 1.9v4.4c3.8 0 4.4-1.9 9.2-1.9.8-.1 1.5 0 2.1.1m8.3 1.7c1.5-.2 2.5-.7 3.8-1.2l.6-4.6c-2 .6-3.1 1.4-5.7 1.4-.5 0-1 0-1.4-.1l2.7 4.5z"/></svg>