<svg xmlns="http://www.w3.org/2000/svg" viewBox="0 0 817.1 253.4"><path d="M59.7 141.6l-28.3 70L0 85.6h45.7zM87 213.9c-3.5 8.6-11.9 14.3-21.2 14.3H35.6l28.2-69.9 29.4-72.7 11.5-28.5h47.4l7.1 28.5 13.9 55.9-28.3 70.1-21.7-87L87 213.9zM241.2 0H287l-86.4 213.9c-3.5 8.6-11.9 14.3-21.2 14.3H149L241.2 0z" fill="#e64a38"/><path d="M396.8 58.7h16.3l-18.9 59.6h-14.7l-11-36.1-11 36.1h-14.7L324 58.7h16.3l10.1 36.6 10.8-36.6h14.5l10.8 36.7 10.3-36.7zm51.4 61.3c-8.8 0-16.3-3-22.4-9.1-6.1-6.1-9.1-13.6-9.1-22.4s3-16.2 9.1-22.3c6.1-6.1 13.6-9.2 22.4-9.2 8.8 0 16.3 3.1 22.4 9.2 6.1 6.1 9.2 13.5 9.2 22.3s-3.1 16.3-9.2 22.4c-6 6.1-13.5 9.1-22.4 9.1zm0-15.1c4.6 0 8.5-1.5 11.6-4.6 3.1-3.1 4.6-7 4.6-11.8s-1.5-8.7-4.6-11.8c-3.1-3.1-6.9-4.6-11.6-4.6-4.6 0-8.5 1.5-11.6 4.6-3 3.1-4.5 7-4.5 11.8s1.5 8.7 4.5 11.8c3.2 3.1 7 4.6 11.6 4.6zm129.3-23.3v36.7h-15.4V82.7c0-7.1-3.7-11.3-10-11.3-7 0-11.1 4.8-11.1 13.5v33.5h-15.4V82.7c0-7.1-3.7-11.3-10-11.3-6.8 0-11.2 4.8-11.2 13.5v33.5H489V58.7h15.4V65c3.6-5.4 9.1-8 16.6-8 7.3 0 12.8 2.9 16.2 8.6 3.9-5.7 9.9-8.6 17.8-8.6 13.7 0 22.5 9.7 22.5 24.6zm25.3 13.2c2 7.5 7.6 11.2 16.8 11.2 5.8 0 10.4-2 13.3-6l12.4 7.2c-5.8 8.5-14.5 12.7-26 12.7-9.9 0-17.8-3-23.7-8.9-6-6-8.9-13.5-8.9-22.5 0-8.9 3-16.4 8.8-22.4C601.4 60 609 57 618.2 57c8.7 0 16 3 21.6 9.1 5.7 6.1 8.6 13.5 8.6 22.4 0 2-.2 4.1-.6 6.3h-45zM633 82.9c-1.8-8.1-7.7-12-14.8-12-8.2 0-13.8 4.4-15.6 12H633zm75.3-19.3c4.3 4.4 6.4 10.4 6.4 18.1v36.6h-15.4V83.6c0-8-4.6-12.3-11.8-12.3-8 0-13.1 4.9-13.1 14.8v32.2H659V58.7h15.4v6.7c3.7-5.6 9.7-8.3 17.8-8.3 6.6-.1 12 2.1 16.1 6.5zm-380.4 88.2c0-5.1 4.3-9.5 9.4-9.5 5.2 0 9.5 4.4 9.5 9.5s-4.3 9.4-9.5 9.4c-5.1 0-9.4-4.3-9.4-9.4zm1.8 76.1v-59.6h15.4v59.6h-15.4zm78.7-54.7c4.3 4.4 6.4 10.4 6.4 18.1v36.6h-15.4v-34.7c0-8-4.6-12.3-11.8-12.3-8 0-13.1 4.9-13.1 14.8v32.2h-15.4v-59.6h15.4v6.7c3.7-5.6 9.7-8.3 17.8-8.3 6.5 0 11.9 2.1 16.1 6.5zm95.7-4.9h15V225c0 9.2-3.1 16.2-9.2 21.1-6.1 4.9-13.3 7.3-21.9 7.3-12.9 0-23-5-28.2-14.5l13.1-7.5c3 5.6 8.2 8.3 15.6 8.3 9.7 0 15.6-5.2 15.6-14.7v-6.4c-4.5 6.1-10.8 9.1-19.1 9.1-8.5 0-15.5-3-21.2-8.8-5.6-6-8.5-13.2-8.5-21.7s2.9-15.6 8.6-21.6c5.7-6 12.7-8.9 21.1-8.9 8.2 0 14.5 3 19.1 9.1v-7.5zm-4.7 17.3c-3.1-3.1-7-4.6-11.9-4.6s-8.8 1.5-12 4.6c-3.1 3-4.6 6.9-4.6 11.6 0 9.5 7 16.3 16.7 16.3s16.7-6.8 16.7-16.3c-.2-4.7-1.7-8.6-4.9-11.6zm77.4-17.3h15.4v59.6h-15.4v-7c-4.6 5.8-11.1 8.7-19.4 8.7-8 0-14.8-3-20.5-9.1-5.6-6.1-8.5-13.6-8.5-22.4s2.9-16.2 8.5-22.3c5.7-6.1 12.5-9.2 20.5-9.2 8.3 0 14.8 2.9 19.4 8.7v-7zm-16.6 46.6c4.8 0 8.7-1.5 11.8-4.6 3.2-3.2 4.8-7.3 4.8-12.2s-1.5-8.9-4.8-12c-3.1-3.2-7-4.8-11.8-4.8-4.8 0-8.7 1.5-11.8 4.8-3.1 3.1-4.6 7.1-4.6 12s1.5 8.9 4.6 12.2c3.1 3.1 7.1 4.6 11.8 4.6zM693 191.2v36.7h-15.4v-35.6c0-7.1-3.7-11.3-10-11.3-7 0-11.1 4.8-11.1 13.5V228h-15.4v-35.6c0-7.1-3.7-11.3-10-11.3-6.8 0-11.2 4.8-11.2 13.5v33.5h-15.4v-59.6h15.4v6.3c3.6-5.4 9.1-8 16.6-8 7.3 0 12.8 2.9 16.2 8.6 3.9-5.7 9.9-8.6 17.8-8.6 13.7-.1 22.5 9.5 22.5 24.4zm24.5 13.2c2 7.5 7.6 11.2 16.8 11.2 5.8 0 10.4-2 13.3-6l12.4 7.2c-5.8 8.5-14.5 12.7-26 12.7-9.9 0-17.8-3-23.7-8.9-6-6-8.9-13.5-8.9-22.5 0-8.9 3-16.4 8.8-22.4 5.8-6.1 13.5-9.1 22.6-9.1 8.7 0 16 3 21.6 9.1 5.7 6.1 8.6 13.5 8.6 22.4 0 2-.2 4.1-.6 6.3h-44.9zm30.2-11.9c-1.8-8.1-7.7-12-14.8-12-8.2 0-13.8 4.4-15.6 12h30.4zm49.5-.7c8.7 1.8 20 6 19.9 18.7 0 6.1-2.3 10.8-6.9 14.2-4.5 3.2-10.2 4.9-17 4.9-12.3 0-20.6-4.8-25-14.2l13.3-7.5c1.8 5.1 5.6 7.7 11.7 7.7 5.5 0 8.2-1.7 8.2-5.1 0-3.2-4.8-5-10.8-6.6-8.8-2.3-19.9-6-19.9-18.4 0-5.8 2.1-10.5 6.4-13.8 4.4-3.5 9.8-5.1 16.2-5.1 9.7 0 18 4.5 22.6 12.6l-13.1 7.1c-1.9-4.1-5.1-6.1-9.5-6.1-3.9 0-6.9 1.9-6.9 4.9 0 3.4 4.7 5.2 10.8 6.7z" fill="#1d1d1b"/></svg>